<svg xmlns="http://www.w3.org/2000/svg" width="149.607" height="50.009" viewBox="0 0 149.607 50.009"><g transform="translate(0 0)"><path d="M137.693,0H11.921c-.458,0-.911,0-1.369,0-.383,0-.762.01-1.149.016A16.521,16.521,0,0,0,6.9.239a8.333,8.333,0,0,0-2.377.784A8.049,8.049,0,0,0,2.5,2.5,7.824,7.824,0,0,0,1.024,4.524,8.253,8.253,0,0,0,.243,6.9a16.244,16.244,0,0,0-.224,2.5c-.012.383-.013.768-.019,1.151v28.9c.006.388.007.764.019,1.153a16.244,16.244,0,0,0,.224,2.5,8.236,8.236,0,0,0,.781,2.381A7.761,7.761,0,0,0,2.5,47.51a7.845,7.845,0,0,0,2.024,1.474,8.377,8.377,0,0,0,2.377.789,16.821,16.821,0,0,0,2.505.221c.386.009.766.013,1.149.013.457,0,.91,0,1.369,0H137.693c.449,0,.906,0,1.355,0,.381,0,.772,0,1.153-.013a16.6,16.6,0,0,0,2.5-.221,8.507,8.507,0,0,0,2.386-.789,7.849,7.849,0,0,0,2.022-1.474,8,8,0,0,0,1.477-2.018,8.257,8.257,0,0,0,.774-2.381,16.884,16.884,0,0,0,.232-2.5c0-.388,0-.764,0-1.153.01-.454.01-.906.01-1.367V11.922c0-.458,0-.912-.01-1.365,0-.383,0-.768,0-1.151a16.886,16.886,0,0,0-.232-2.5,8.274,8.274,0,0,0-.774-2.38,8.084,8.084,0,0,0-3.5-3.5A8.461,8.461,0,0,0,142.7.239a16.308,16.308,0,0,0-2.5-.221C139.82.012,139.43,0,139.049,0c-.449,0-.906,0-1.355,0Z" transform="translate(0 0)" fill="#a6a6a6"/><path d="M10.339,48.7c-.381,0-.753,0-1.131-.013a15.861,15.861,0,0,1-2.337-.2A7.356,7.356,0,0,1,4.8,47.794a6.758,6.758,0,0,1-1.747-1.271,6.652,6.652,0,0,1-1.276-1.746A7.154,7.154,0,0,1,1.1,42.705a15.52,15.52,0,0,1-.208-2.344C.883,40.1.873,39.219.873,39.219V10.338S.884,9.474.891,9.22A15.466,15.466,0,0,1,1.1,6.879,7.2,7.2,0,0,1,1.778,4.8,6.718,6.718,0,0,1,3.047,3.054,6.958,6.958,0,0,1,4.8,1.775,7.28,7.28,0,0,1,6.867,1.1,15.735,15.735,0,0,1,9.212.89L10.34.875H138.824l1.142.016a15.484,15.484,0,0,1,2.323.2,7.424,7.424,0,0,1,2.089.685A6.993,6.993,0,0,1,147.4,4.8a7.205,7.205,0,0,1,.669,2.062,16.247,16.247,0,0,1,.217,2.359c0,.354,0,.734,0,1.113.01.469.01.915.01,1.365V37.869c0,.454,0,.9-.01,1.344,0,.407,0,.779,0,1.162a15.913,15.913,0,0,1-.214,2.317,7.175,7.175,0,0,1-.675,2.088,6.852,6.852,0,0,1-1.27,1.732,6.767,6.767,0,0,1-1.75,1.278,7.329,7.329,0,0,1-2.085.687,15.68,15.68,0,0,1-2.337.2c-.366.009-.75.013-1.122.013l-1.355,0Z" transform="translate(0.218 0.219)" fill="#0f0f13"/><g transform="translate(12.467 10.902)"><path d="M28.472,21.884a6.187,6.187,0,0,1,2.946-5.191,6.333,6.333,0,0,0-4.99-2.7c-2.1-.22-4.135,1.256-5.2,1.256-1.091,0-2.738-1.234-4.511-1.2a6.645,6.645,0,0,0-5.592,3.41c-2.418,4.186-.614,10.339,1.7,13.723,1.159,1.657,2.513,3.508,4.285,3.442,1.734-.072,2.382-1.106,4.475-1.106,2.074,0,2.681,1.106,4.49,1.064,1.861-.03,3.033-1.664,4.151-3.337a13.7,13.7,0,0,0,1.9-3.866A5.979,5.979,0,0,1,28.472,21.884Z" transform="translate(-9.972 -7.406)" fill="#fff"/><path d="M22.85,13.084A6.092,6.092,0,0,0,24.243,8.72a6.2,6.2,0,0,0-4.01,2.075A5.8,5.8,0,0,0,18.8,15,5.125,5.125,0,0,0,22.85,13.084Z" transform="translate(-7.765 -8.72)" fill="#fff"/><g transform="translate(30.575 11.441)"><path d="M44.273,29.407H38.355l-1.421,4.2H34.427l5.605-15.525h2.6L48.242,33.6H45.693Zm-5.3-1.936h4.691l-2.312-6.81h-.065Z" transform="translate(-34.427 -17.819)" fill="#fff"/><path d="M57.294,27.127c0,3.517-1.883,5.777-4.724,5.777a3.837,3.837,0,0,1-3.561-1.98h-.054V36.53H46.631V21.467H48.88v1.883h.043a4.015,4.015,0,0,1,3.6-2C55.4,21.348,57.294,23.619,57.294,27.127Zm-2.388,0c0-2.292-1.184-3.8-2.991-3.8-1.775,0-2.969,1.538-2.969,3.8,0,2.281,1.194,3.808,2.969,3.808C53.721,30.935,54.906,29.439,54.906,27.127Z" transform="translate(-31.373 -17.002)" fill="#fff"/><path d="M67.259,27.127c0,3.517-1.883,5.777-4.724,5.777a3.837,3.837,0,0,1-3.561-1.98H58.92V36.53H56.6V21.466h2.249v1.883h.043a4.015,4.015,0,0,1,3.6-2C65.365,21.348,67.259,23.619,67.259,27.127Zm-2.388,0c0-2.292-1.184-3.8-2.991-3.8-1.775,0-2.969,1.538-2.969,3.8,0,2.281,1.194,3.808,2.969,3.808,1.807,0,2.991-1.5,2.991-3.808Z" transform="translate(-28.88 -17.002)" fill="#fff"/><path d="M72.186,29.329c.172,1.54,1.668,2.55,3.712,2.55,1.958,0,3.367-1.011,3.367-2.4,0-1.205-.85-1.927-2.862-2.421l-2.012-.485c-2.851-.689-4.174-2.022-4.174-4.185,0-2.679,2.334-4.519,5.649-4.519,3.281,0,5.53,1.84,5.605,4.519H79.126c-.14-1.549-1.421-2.485-3.293-2.485s-3.152.946-3.152,2.323c0,1.1.818,1.743,2.819,2.238l1.711.42c3.185.753,4.509,2.033,4.509,4.3,0,2.9-2.314,4.724-5.994,4.724-3.443,0-5.768-1.776-5.918-4.585Z" transform="translate(-25.574 -17.871)" fill="#fff"/><path d="M84.143,19.3v2.679H86.3v1.84H84.143v6.24c0,.969.431,1.421,1.377,1.421a7.26,7.26,0,0,0,.764-.054v1.829a6.38,6.38,0,0,1-1.291.107c-2.292,0-3.185-.861-3.185-3.056V23.818H80.163v-1.84h1.646V19.3Z" transform="translate(-22.983 -17.514)" fill="#fff"/><path d="M86.065,27.13c0-3.561,2.1-5.8,5.368-5.8s5.37,2.238,5.37,5.8-2.077,5.8-5.37,5.8S86.065,30.7,86.065,27.13Zm8.371,0c0-2.443-1.12-3.885-3-3.885s-3,1.453-3,3.885c0,2.453,1.118,3.884,3,3.884s3-1.431,3-3.884Z" transform="translate(-21.506 -17.005)" fill="#fff"/><path d="M96.186,21.466H98.4v1.927h.054a2.7,2.7,0,0,1,2.723-2.045,3.583,3.583,0,0,1,.8.087v2.173a3.248,3.248,0,0,0-1.044-.14,2.341,2.341,0,0,0-2.421,2.6v6.714H96.186Z" transform="translate(-18.974 -17.002)" fill="#fff"/><path d="M111.428,29.465c-.313,2.055-2.314,3.465-4.874,3.465-3.293,0-5.337-2.206-5.337-5.746s2.055-5.853,5.239-5.853c3.132,0,5.1,2.151,5.1,5.583v.8h-7.995v.14a2.948,2.948,0,0,0,3.045,3.206,2.561,2.561,0,0,0,2.614-1.592Zm-7.854-3.378h5.659a2.722,2.722,0,0,0-2.776-2.873,2.866,2.866,0,0,0-2.883,2.873Z" transform="translate(-17.715 -17.005)" fill="#fff"/></g></g></g><g transform="translate(44.597 10.548)"><path d="M38.365,8.733a3.3,3.3,0,0,1,3.51,3.707c0,2.383-1.288,3.753-3.51,3.753H35.671V8.733Zm-1.536,6.4h1.407a2.345,2.345,0,0,0,2.46-2.683,2.352,2.352,0,0,0-2.46-2.668H36.83Z" transform="translate(-35.671 -8.365)" fill="#fff"/><path d="M41.683,13.029a2.667,2.667,0,1,1,5.31,0,2.667,2.667,0,1,1-5.31,0Zm4.167,0c0-1.22-.548-1.934-1.51-1.934s-1.509.714-1.509,1.934.543,1.938,1.509,1.938,1.51-.713,1.51-1.938Z" transform="translate(-34.17 -8.019)" fill="#fff"/><path d="M52.825,15.825H51.673l-1.164-4.146h-.088l-1.159,4.146H48.121l-1.552-5.63H47.7l1.008,4.3h.083l1.157-4.3h1.066l1.157,4.3h.088l1-4.3h1.111Z" transform="translate(-32.944 -7.997)" fill="#fff"/><path d="M53.854,10.218h1.07v.894h.083a1.685,1.685,0,0,1,1.68-1A1.831,1.831,0,0,1,58.635,12.2v3.644H57.524V12.482c0-.9-.393-1.355-1.215-1.355a1.291,1.291,0,0,0-1.344,1.427v3.293H53.854Z" transform="translate(-31.121 -8.02)" fill="#fff"/><path d="M59.094,8.437H60.2v7.827H59.094Z" transform="translate(-29.81 -8.437)" fill="#fff"/><path d="M61.22,13.029a2.667,2.667,0,1,1,5.31,0,2.668,2.668,0,1,1-5.31,0Zm4.167,0c0-1.22-.548-1.934-1.51-1.934s-1.509.714-1.509,1.934.543,1.938,1.509,1.938,1.51-.713,1.51-1.938Z" transform="translate(-29.281 -8.019)" fill="#fff"/><path d="M66.4,14.254c0-1.013.755-1.6,2.094-1.681l1.525-.088V12c0-.595-.393-.93-1.153-.93-.62,0-1.05.228-1.173.626H66.618c.114-.967,1.023-1.587,2.3-1.587,1.411,0,2.207.7,2.207,1.892v3.847h-1.07v-.791h-.088a1.894,1.894,0,0,1-1.691.884A1.7,1.7,0,0,1,66.4,14.254Zm3.619-.481V13.3l-1.375.088c-.775.052-1.127.316-1.127.812s.44.8,1.044.8a1.327,1.327,0,0,0,1.458-1.231Z" transform="translate(-27.981 -8.019)" fill="#fff"/><path d="M71.348,13.447c0-1.779.914-2.906,2.337-2.906a1.855,1.855,0,0,1,1.726.988h.083V8.437h1.111v7.827H75.541v-.889h-.088a1.954,1.954,0,0,1-1.768.982C72.253,16.357,71.348,15.23,71.348,13.447Zm1.148,0c0,1.194.563,1.913,1.5,1.913s1.515-.729,1.515-1.908S74.93,11.539,74,11.539s-1.5.723-1.5,1.908Z" transform="translate(-26.744 -8.437)" fill="#fff"/><path d="M79.233,13.029a2.667,2.667,0,1,1,5.31,0,2.667,2.667,0,1,1-5.31,0Zm4.167,0c0-1.22-.548-1.934-1.51-1.934s-1.509.714-1.509,1.934.543,1.938,1.509,1.938S83.4,14.254,83.4,13.029Z" transform="translate(-24.774 -8.019)" fill="#fff"/><path d="M84.669,10.218h1.07v.894h.083a1.685,1.685,0,0,1,1.68-1A1.831,1.831,0,0,1,89.451,12.2v3.644H88.34V12.482c0-.9-.393-1.355-1.215-1.355a1.291,1.291,0,0,0-1.344,1.427v3.293H84.669Z" transform="translate(-23.41 -8.02)" fill="#fff"/><path d="M93.917,9.074V10.5h1.22v.936h-1.22v2.895c0,.59.243.848.8.848a3.709,3.709,0,0,0,.424-.026v.925a3.645,3.645,0,0,1-.6.057c-1.236,0-1.728-.435-1.728-1.52V11.437h-.894V10.5H92.8V9.074Z" transform="translate(-21.598 -8.278)" fill="#fff"/><path d="M95.7,8.437h1.1v3.1h.088a1.732,1.732,0,0,1,1.717-1.008,1.855,1.855,0,0,1,1.939,2.1v3.635H99.437V12.9c0-.9-.419-1.355-1.2-1.355a1.315,1.315,0,0,0-1.417,1.427v3.288H95.7Z" transform="translate(-20.649 -8.437)" fill="#fff"/><path d="M105.775,14.326a2.285,2.285,0,0,1-2.439,1.629,2.557,2.557,0,0,1-2.6-2.906,2.6,2.6,0,0,1,2.6-2.941c1.566,0,2.511,1.07,2.511,2.838v.388h-3.975V13.4a1.488,1.488,0,0,0,1.5,1.613,1.349,1.349,0,0,0,1.339-.682Zm-3.908-1.814h2.844a1.358,1.358,0,0,0-1.386-1.458,1.44,1.44,0,0,0-1.458,1.458Z" transform="translate(-19.396 -8.019)" fill="#fff"/></g></svg>