<svg xmlns="http://www.w3.org/2000/svg" xmlns:xlink="http://www.w3.org/1999/xlink" width="73.473" height="55.954" viewBox="0 0 73.473 55.954">
  <defs>
    <filter id="Union_1" x="0" y="0" width="73.473" height="55.954" filterUnits="userSpaceOnUse">
      <feOffset dx="2" dy="3" input="SourceAlpha"/>
      <feGaussianBlur stdDeviation="1.5" result="blur"/>
      <feFlood flood-opacity="0.42"/>
      <feComposite operator="in" in2="blur"/>
      <feComposite in="SourceGraphic"/>
    </filter>
  </defs>
  <g id="Icon_Radar" transform="translate(-962.774 -3931.146)">
    <g transform="matrix(1, 0, 0, 1, 962.77, 3931.15)" filter="url(#Union_1)">
      <path id="Union_1-2" data-name="Union 1" d="M-13731.039,44.574a2.373,2.373,0,0,1,.7-1.684l0,0a27.373,27.373,0,0,0,8.042-19.418,27.373,27.373,0,0,0-7.878-19.256,2.382,2.382,0,0,1-.859-1.832,2.38,2.38,0,0,1,2.38-2.38,2.377,2.377,0,0,1,1.676.687l.013-.012a32.123,32.123,0,0,1,9.442,22.794,32.135,32.135,0,0,1-9.442,22.794l0,0a2.379,2.379,0,0,1-1.685.7A2.38,2.38,0,0,1-13731.039,44.574Zm-41.515,1.684,0,0A32.151,32.151,0,0,1-13782,23.468a32.139,32.139,0,0,1,9.442-22.794l.014.013A2.376,2.376,0,0,1-13770.87,0a2.379,2.379,0,0,1,2.379,2.38,2.381,2.381,0,0,1-.858,1.832,27.374,27.374,0,0,0-7.878,19.256,27.376,27.376,0,0,0,8.041,19.418l0,0a2.372,2.372,0,0,1,.7,1.684,2.379,2.379,0,0,1-2.379,2.38A2.375,2.375,0,0,1-13772.554,46.257Zm34.771-8.432a2.372,2.372,0,0,1,.7-1.681l0,0a17.872,17.872,0,0,0,5.251-12.673,17.858,17.858,0,0,0-5.118-12.539,2.374,2.374,0,0,1-.824-1.8,2.38,2.38,0,0,1,2.38-2.38,2.372,2.372,0,0,1,1.67.685l.014-.014a22.615,22.615,0,0,1,6.648,16.049,22.613,22.613,0,0,1-6.648,16.045l0,0a2.37,2.37,0,0,1-1.682.7A2.383,2.383,0,0,1-13737.783,37.826Zm-28.024,1.685,0,0a22.616,22.616,0,0,1-6.647-16.045,22.618,22.618,0,0,1,6.647-16.049l.015.014a2.368,2.368,0,0,1,1.67-.685,2.38,2.38,0,0,1,2.38,2.38,2.374,2.374,0,0,1-.824,1.8,17.858,17.858,0,0,0-5.118,12.539,17.868,17.868,0,0,0,5.251,12.673l0,0a2.372,2.372,0,0,1,.7,1.681,2.383,2.383,0,0,1-2.38,2.383A2.37,2.37,0,0,1-13765.808,39.511Z" transform="translate(13784.5 1.5)" fill="#fff"/>
    </g>
    <path id="Path_14" data-name="Path 14" d="M214.651,208.6a7.994,7.994,0,1,1-7.994,7.994,7.994,7.994,0,0,1,7.994-7.994Z" transform="translate(782.859 3739.516)" fill="#d447ff" fill-rule="evenodd"/>
  </g>
</svg>
